<?xml version="1.0" encoding="UTF-8" standalone="no"?><svg xmlns="http://www.w3.org/2000/svg" xmlns:xlink="http://www.w3.org/1999/xlink" contentScriptType="text/ecmascript" fill="#000000" width="944.5" zoomAndPan="magnify" contentStyleType="text/css" viewBox="-0.2 -5.9 944.5 396.2" height="396.2" preserveAspectRatio="xMidYMid meet" version="1"><g><linearGradient x1="0" y1="243.863" x2="929.657" gradientUnits="userSpaceOnUse" y2="243.863" xlink:type="simple" xlink:actuate="onLoad" id="a" xlink:show="other"><stop stop-color="#cbe4f1" offset="0"/><stop stop-color="#c8c1de" offset="0.2"/><stop stop-color="#f4d1e1" offset="0.4"/><stop stop-color="#f6cfbd" offset="0.6"/><stop stop-color="#f9f5d1" offset="0.8"/><stop stop-color="#cde3cd" offset="1"/></linearGradient><path fill="none" stroke-miterlimit="10" d="M929.2,144.8c-13.5-19.2-43.5-19-63.5-6.7c-20,12.2-33,32.9-47.2,51.6c-14.2,18.7-31.9,37.1-55.1,41 c-28.6,4.8-55.2-13.7-78.9-30.3c-26.6-18.7-54.3-36.6-85.1-46.8c-30.9-10.1-65.6-11.9-95.3,1.2c-47.4,20.9-71.5,72.8-94.1,119.4 c-22.6,46.6-54,96.8-104.9,107c-43.1,8.6-90.5-19.6-103.4-61.7c-8-26-3.8-54.1-6.2-81.2c-4-45.2-28-89.1-66.3-113.4 s-90.4-27-129.1-3.3" stroke="url(#a)"/><linearGradient x1="0.179" y1="235.502" x2="930.443" gradientUnits="userSpaceOnUse" y2="235.502" xlink:type="simple" xlink:actuate="onLoad" id="b" xlink:show="other"><stop stop-color="#cbe4f1" offset="0"/><stop stop-color="#c8c1de" offset="0.2"/><stop stop-color="#f4d1e1" offset="0.4"/><stop stop-color="#f6cfbd" offset="0.6"/><stop stop-color="#f9f5d1" offset="0.8"/><stop stop-color="#cde3cd" offset="1"/></linearGradient><path fill="none" stroke-miterlimit="10" d="M0.4,118.8c37.6-21.5,88.5-19.1,126,3.3s60.7,63.1,66,105.2c3.1,25,0.9,51,9.6,76.2 c13.9,40.4,59.2,69.2,100.4,62.6c48.5-7.9,78.6-53.7,101.6-97.1c23-43.5,47.6-93.3,93.7-114.5c29.4-13.5,63-13.2,93.7-4.8 c31,8.4,59.8,24.8,87.2,42.8c24.7,16.1,52.2,34.2,81.5,30.2c24.1-3.2,43.6-20.1,59-38.7c14.7-17.8,27.7-38.1,47.7-50 c20-11.9,49.6-12.2,63.4,6.4" stroke="url(#b)"/><linearGradient x1="0.36" y1="227.142" x2="931.229" gradientUnits="userSpaceOnUse" y2="227.142" xlink:type="simple" xlink:actuate="onLoad" id="c" xlink:show="other"><stop stop-color="#cbe4f1" offset="0"/><stop stop-color="#c8c1de" offset="0.2"/><stop stop-color="#f4d1e1" offset="0.4"/><stop stop-color="#f6cfbd" offset="0.6"/><stop stop-color="#f9f5d1" offset="0.8"/><stop stop-color="#cde3cd" offset="1"/></linearGradient><path fill="none" stroke-miterlimit="10" d="M0.6,116.1c36.5-19.4,86.3-17.2,122.9,3.4s59.2,58.1,65.7,96.9c3.8,22.9,3.6,46.8,13,71.2 c15,38.8,58.1,68.2,97.3,63.5c46.1-5.5,75.1-47,98.4-87.2c23.3-40.3,48.6-88.2,93.3-109.5c29.1-13.9,61.6-15,92-8.5 c31.1,6.7,60.9,21.7,89.3,38.8c25.7,15.5,54,33.2,84.1,30.2c25.2-2.6,46.3-17.9,62.9-36.4c15.2-17,28.3-36.9,48.3-48.5 c20-11.6,49.2-12,63.2,6.1" stroke="url(#c)"/><linearGradient x1="0.543" y1="218.781" x2="932.015" gradientUnits="userSpaceOnUse" y2="218.781" xlink:type="simple" xlink:actuate="onLoad" id="d" xlink:show="other"><stop stop-color="#cbe4f1" offset="0"/><stop stop-color="#c8c1de" offset="0.2"/><stop stop-color="#f4d1e1" offset="0.4"/><stop stop-color="#f6cfbd" offset="0.6"/><stop stop-color="#f9f5d1" offset="0.8"/><stop stop-color="#cde3cd" offset="1"/></linearGradient><path fill="none" stroke-miterlimit="10" d="M0.8,113.3c35.4-17.2,84-15.3,119.8,3.4s57.6,53,65.4,88.6c4.6,20.8,6.2,42.6,16.3,66.2 c16,37.1,57,67.2,94.2,64.4c43.8-3.2,71.5-40.2,95.1-77.3c23.6-37.1,49.5-83,92.8-104.6c28.7-14.3,60.2-17,90.3-12.2 c31.3,5,62.1,18.5,91.4,34.8c26.7,14.9,55.9,32.3,86.7,30.1c26.2-1.9,49-15.7,66.8-34.1c15.7-16.2,28.9-35.7,48.9-47 s48.8-11.8,63.1,5.9" stroke="url(#d)"/><linearGradient x1="0.727" y1="210.421" x2="932.8" gradientUnits="userSpaceOnUse" y2="210.421" xlink:type="simple" xlink:actuate="onLoad" id="e" xlink:show="other"><stop stop-color="#cbe4f1" offset="0"/><stop stop-color="#c8c1de" offset="0.2"/><stop stop-color="#f4d1e1" offset="0.4"/><stop stop-color="#f6cfbd" offset="0.6"/><stop stop-color="#f9f5d1" offset="0.8"/><stop stop-color="#cde3cd" offset="1"/></linearGradient><path fill="none" stroke-miterlimit="10" d="M0.9,110.4c34.3-15,81.8-13.4,116.7,3.5s56,48,65.1,80.3c5.3,18.7,8.9,38.4,19.7,61.1 c16.9,35.5,55.9,66.1,91.2,65.4c41.4-0.9,67.9-33.5,91.9-67.5c23.9-33.9,50.5-77.8,92.4-99.6c28.4-14.7,58.9-18.9,88.6-15.9 c31.5,3.2,63.2,15.3,93.5,30.8c27.8,14.3,57.7,31.4,89.3,30c27.2-1.2,51.6-13.5,70.8-31.8c16.1-15.3,29.5-34.5,49.5-45.4 s48.4-11.6,63,5.6" stroke="url(#e)"/><linearGradient x1="0.914" y1="202.06" x2="933.585" gradientUnits="userSpaceOnUse" y2="202.06" xlink:type="simple" xlink:actuate="onLoad" id="f" xlink:show="other"><stop stop-color="#cbe4f1" offset="0"/><stop stop-color="#c8c1de" offset="0.2"/><stop stop-color="#f4d1e1" offset="0.4"/><stop stop-color="#f6cfbd" offset="0.6"/><stop stop-color="#f9f5d1" offset="0.8"/><stop stop-color="#cde3cd" offset="1"/></linearGradient><path fill="none" stroke-miterlimit="10" d="M1.1,107.4C34.3,94.6,80.6,96,114.7,111s54.4,43.1,64.8,72c6,16.8,11.5,34.2,23.1,56.1 c17.9,33.8,54.8,65.1,88.1,66.3c39,1.4,64.4-26.8,88.6-57.6c24.2-30.7,51.4-72.7,91.9-94.7c28.1-15.2,57.6-20.9,87-19.6 c31.8,1.4,64.4,12.1,95.6,26.8c28.8,13.7,59.6,30.5,91.8,29.9c28.3-0.6,54.2-11.3,74.7-29.5c16.4-14.6,30.1-33.2,50.1-43.9 s48-11.4,62.8,5.3" stroke="url(#f)"/><linearGradient x1="1.103" y1="193.7" x2="934.37" gradientUnits="userSpaceOnUse" y2="193.7" xlink:type="simple" xlink:actuate="onLoad" id="g" xlink:show="other"><stop stop-color="#cbe4f1" offset="0"/><stop stop-color="#c8c1de" offset="0.2"/><stop stop-color="#f4d1e1" offset="0.4"/><stop stop-color="#f6cfbd" offset="0.6"/><stop stop-color="#f9f5d1" offset="0.8"/><stop stop-color="#cde3cd" offset="1"/></linearGradient><path fill="none" stroke-miterlimit="10" d="M1.3,104.3c32.1-10.7,77.2-9.5,110.5,3.6s52.8,38.3,64.5,63.7c6.8,14.8,14.2,30,26.5,51.1 c18.8,32.2,53.6,64,85,67.2c36.5,3.8,60.8-20.1,85.4-47.7c24.6-27.6,52.3-67.6,91.5-89.7c27.7-15.6,56.4-20.7,85.3-23.2 c31.9-2.8,65.6,8.8,97.6,22.9c29.9,13.1,61.4,28.9,94.4,29.8c29.3,0.7,56.7-9.2,78.6-27.3c16.8-13.8,30.7-32,50.7-42.4 c20-10.4,47.6-11.2,62.7,5" stroke="url(#g)"/><linearGradient x1="1.295" y1="185.339" x2="935.154" gradientUnits="userSpaceOnUse" y2="185.339" xlink:type="simple" xlink:actuate="onLoad" id="h" xlink:show="other"><stop stop-color="#cbe4f1" offset="0"/><stop stop-color="#c8c1de" offset="0.2"/><stop stop-color="#f4d1e1" offset="0.4"/><stop stop-color="#f6cfbd" offset="0.6"/><stop stop-color="#f9f5d1" offset="0.8"/><stop stop-color="#cde3cd" offset="1"/></linearGradient><path fill="none" stroke-miterlimit="10" d="M1.4,101c31-8.5,75-7.6,107.3,3.6s51.3,33.5,64.2,55.5c7.6,13,16.8,25.8,29.9,46.1 c19.7,30.5,52.4,62.9,82,68.1c34.1,6,57.3-13.4,82.1-37.8c24.9-24.4,53.2-62.5,91.1-84.7c27.4-16.1,55-24.9,83.6-26.9 c32.3-2.3,66.8,5.6,99.7,18.9c30.9,12.4,63.3,28.7,97,29.7c30.3,0.8,59.2-7.1,82.6-25c17.1-13.1,31.3-30.8,51.3-40.8 s47.2-11,62.5,4.7" stroke="url(#h)"/><linearGradient x1="1.491" y1="176.978" x2="935.938" gradientUnits="userSpaceOnUse" y2="176.978" xlink:type="simple" xlink:actuate="onLoad" id="i" xlink:show="other"><stop stop-color="#cbe4f1" offset="0"/><stop stop-color="#c8c1de" offset="0.2"/><stop stop-color="#f4d1e1" offset="0.4"/><stop stop-color="#f6cfbd" offset="0.6"/><stop stop-color="#f9f5d1" offset="0.8"/><stop stop-color="#cde3cd" offset="1"/></linearGradient><path fill="none" stroke-miterlimit="10" d="M1.6,97.4c29.9-6.3,72.7-5.7,104.2,3.7s50,28.8,63.9,47.2c8.5,11.2,19.4,21.6,33.3,41 c20.6,28.9,51.2,61.8,78.9,69.1c31.6,8.3,53.7-6.7,78.9-27.9c25.2-21.2,54.1-57.4,90.6-79.8c27-16.5,53.7-27,82-30.6 c32.5-4.2,68,2.4,101.8,14.9c31.9,11.8,65.1,27.8,99.6,29.6c31.4,1.6,61.7-5,86.5-22.7c17.4-12.4,31.9-29.6,51.9-39.3 s46.8-10.7,62.4,4.4" stroke="url(#i)"/><linearGradient x1="1.69" y1="168.618" x2="936.721" gradientUnits="userSpaceOnUse" y2="168.618" xlink:type="simple" xlink:actuate="onLoad" id="j" xlink:show="other"><stop stop-color="#cbe4f1" offset="0"/><stop stop-color="#c8c1de" offset="0.2"/><stop stop-color="#f4d1e1" offset="0.4"/><stop stop-color="#f6cfbd" offset="0.6"/><stop stop-color="#f9f5d1" offset="0.8"/><stop stop-color="#cde3cd" offset="1"/></linearGradient><path fill="none" stroke-miterlimit="10" d="M1.8,93.9c28.8-4.2,70.4-3.8,101.1,3.7c30.7,7.5,51.7,21.8,63.6,38.9c11,7.6,22,17.4,36.7,36 c21.5,27.3,50,60.7,75.8,70c29.1,10.5,50.1,0,75.6-18c25.5-18,55.1-52.4,90.2-74.8c26.7-17,52.4-29.1,80.3-34.3 c32.8-6.1,69.2-0.8,103.9,10.9c33,11.2,67,27,102.2,29.5c32.4,2.3,64.1-2.9,90.4-20.4c17.6-11.7,32.5-28.4,52.5-37.8 c19.9-9.4,46.4-10.5,62.3,4.1" stroke="url(#j)"/><linearGradient x1="1.892" y1="160.257" x2="937.505" gradientUnits="userSpaceOnUse" y2="160.257" xlink:type="simple" xlink:actuate="onLoad" id="k" xlink:show="other"><stop stop-color="#cbe4f1" offset="0"/><stop stop-color="#c8c1de" offset="0.2"/><stop stop-color="#f4d1e1" offset="0.4"/><stop stop-color="#f6cfbd" offset="0.6"/><stop stop-color="#f9f5d1" offset="0.8"/><stop stop-color="#cde3cd" offset="1"/></linearGradient><path fill="none" stroke-miterlimit="10" d="M1.9,91c27.7-2,68.2-1.9,98,3.7c29.9,5.6,50.6,16.6,63.3,30.6c12,5.4,24.6,13.2,40.1,31 c22.3,25.7,48.8,59.5,72.8,70.9c26.7,12.7,46.6,6.7,72.4-8.1c25.8-14.8,55.9-47.4,89.8-69.9c26.3-17.5,51.1-31.2,78.6-37.9 c33.1-8.1,70.4-4.1,106,6.9c34.1,10.5,68.8,26.1,104.8,29.4c33.4,3,66.6-0.9,94.4-18.1c17.9-11.1,33.1-27.2,53-36.3 c19.9-9.1,46-10.3,62.1,3.8" stroke="url(#k)"/><linearGradient x1="2.091" y1="151.897" x2="938.288" gradientUnits="userSpaceOnUse" y2="151.897" xlink:type="simple" xlink:actuate="onLoad" id="l" xlink:show="other"><stop stop-color="#cbe4f1" offset="0"/><stop stop-color="#c8c1de" offset="0.2"/><stop stop-color="#f4d1e1" offset="0.4"/><stop stop-color="#f6cfbd" offset="0.6"/><stop stop-color="#f9f5d1" offset="0.8"/><stop stop-color="#cde3cd" offset="1"/></linearGradient><path fill="none" stroke-miterlimit="10" d="M2.1,87.4C28.7,87.6,68,87.5,97,91.2s49.4,11.5,63,22.3c13,3.3,27.2,9,43.4,26c23.2,24.1,47.6,58.3,69.7,71.9 c24.2,14.8,43,13.5,69.1,1.8c26.2-11.7,56.8-42.3,89.3-64.9c25.9-18,49.8-33.4,76.9-41.6c33.3-10.1,71.6-7.3,108.1,2.9 c35.1,9.9,70.7,25.3,107.4,29.3c34.5,3.8,69,1.1,98.3-15.8C840.4,112.5,856,97,876,88.3s45.6-10.1,62,3.5" stroke="url(#l)"/><linearGradient x1="2.215" y1="143.536" x2="939.07" gradientUnits="userSpaceOnUse" y2="143.536" xlink:type="simple" xlink:actuate="onLoad" id="m" xlink:show="other"><stop stop-color="#cbe4f1" offset="0"/><stop stop-color="#c8c1de" offset="0.2"/><stop stop-color="#f4d1e1" offset="0.4"/><stop stop-color="#f6cfbd" offset="0.6"/><stop stop-color="#f9f5d1" offset="0.8"/><stop stop-color="#cde3cd" offset="1"/></linearGradient><path fill="none" stroke-miterlimit="10" d="M2.3,83.2c25.5,2.4,63.6,2,91.8,3.8s48.2,6.3,62.7,14c13.9,1.1,29.7,4.9,46.8,20.9c24,22.5,46.4,57,66.6,72.8 c21.7,16.9,39.4,20.2,65.9,11.7c26.5-8.5,57.7-37.3,88.9-60c25.5-18.5,48.5-35.6,75.3-45.3c33.5-12.2,72.8-10.6,110.1-1 c36.2,9.2,72.5,24.4,109.9,29.2c35.5,4.5,71.4,3,102.2-13.6c18.3-9.8,34.3-24.7,54.2-33.2s45.2-9.9,61.9,3.2" stroke="url(#m)"/><linearGradient x1="2.337" y1="135.175" x2="939.852" gradientUnits="userSpaceOnUse" y2="135.175" xlink:type="simple" xlink:actuate="onLoad" id="n" xlink:show="other"><stop stop-color="#cbe4f1" offset="0"/><stop stop-color="#c8c1de" offset="0.2"/><stop stop-color="#f4d1e1" offset="0.4"/><stop stop-color="#f6cfbd" offset="0.6"/><stop stop-color="#f9f5d1" offset="0.8"/><stop stop-color="#cde3cd" offset="1"/></linearGradient><path fill="none" stroke-miterlimit="10" d="M2.4,78.2c24.4,4.5,61.4,3.9,88.7,3.9s47.1,1.1,62.5,5.8c14.9-1.1,32.3,0.7,50.2,15.9 c24.7,20.9,45.3,55.8,63.6,73.7c19.3,18.9,35.9,26.9,62.6,21.6c26.8-5.3,58.6-32.3,88.4-55c25.2-19.1,47.1-37.8,73.6-49 c33.7-14.2,74-13.8,112.2-5c37.2,8.6,74.4,23.6,112.5,29.1c36.5,5.2,73.8,4.9,106.2-11.3c18.5-9.3,34.9-23.5,54.8-31.7 c19.9-8.2,44.8-9.7,61.7,2.9" stroke="url(#n)"/><linearGradient x1="2.456" y1="126.815" x2="940.634" gradientUnits="userSpaceOnUse" y2="126.815" xlink:type="simple" xlink:actuate="onLoad" id="o" xlink:show="other"><stop stop-color="#cbe4f1" offset="0"/><stop stop-color="#c8c1de" offset="0.2"/><stop stop-color="#f4d1e1" offset="0.4"/><stop stop-color="#f6cfbd" offset="0.6"/><stop stop-color="#f9f5d1" offset="0.8"/><stop stop-color="#cde3cd" offset="1"/></linearGradient><path fill="none" stroke-miterlimit="10" d="M2.6,72.3c23.3,6.7,59.1,5.8,85.6,3.9s46.8,3.1,62.2-2.5c15.2-5.5,34.8-3.4,53.6,10.9 c25.5,19.4,44.2,54.4,60.5,74.6c16.9,21,32.3,33.6,59.4,31.5c27.1-2.1,59.4-27.4,88-50.1c24.8-19.6,45.7-40,71.9-52.7 c33.9-16.3,75.2-17.1,114.3-9c38.3,7.9,76.2,22.8,115.1,29c37.5,6,76.1,6.7,110.1-9c18.8-8.7,35.5-22.3,55.4-30.1 s44.4-9.5,61.6,2.6" stroke="url(#o)"/><linearGradient x1="2.575" y1="118.454" x2="941.416" gradientUnits="userSpaceOnUse" y2="118.454" xlink:type="simple" xlink:actuate="onLoad" id="p" xlink:show="other"><stop stop-color="#cbe4f1" offset="0"/><stop stop-color="#c8c1de" offset="0.2"/><stop stop-color="#f4d1e1" offset="0.4"/><stop stop-color="#f6cfbd" offset="0.6"/><stop stop-color="#f9f5d1" offset="0.8"/><stop stop-color="#cde3cd" offset="1"/></linearGradient><path fill="none" stroke-miterlimit="10" d="M2.8,65.9c22.2,8.9,56.8,7.8,82.5,4s45-7.4,61.9-10.8c17.3-3.6,37.3-7.5,57,5.9 c26.3,17.9,43.1,53.1,57.5,75.6c14.6,23,28.7,40.3,56.1,41.3c27.4,1,60.2-22.4,87.6-45.1c24.3-20.2,44.4-42.3,70.3-56.3 C509.6,62,552,60.1,592,67.4c39.3,7.2,78.1,21.9,117.7,28.9c38.6,6.8,78.5,8.5,114-6.7c19-8.1,36.1-21.1,56-28.6s44-9.3,61.5,2.3" stroke="url(#p)"/><linearGradient x1="2.696" y1="110.094" x2="942.197" gradientUnits="userSpaceOnUse" y2="110.094" xlink:type="simple" xlink:actuate="onLoad" id="q" xlink:show="other"><stop stop-color="#cbe4f1" offset="0"/><stop stop-color="#c8c1de" offset="0.2"/><stop stop-color="#f4d1e1" offset="0.4"/><stop stop-color="#f6cfbd" offset="0.6"/><stop stop-color="#f9f5d1" offset="0.8"/><stop stop-color="#cde3cd" offset="1"/></linearGradient><path fill="none" stroke-miterlimit="10" d="M2.9,64c21.1,11,54.6,9.7,79.4,4s43.9-13.1,61.6-19.1c18.3-6.3,39.8-11.6,60.4,0.8 c27.1,16.4,42.1,51.8,54.4,76.5c12.4,25,25.2,47,52.9,51.2c27.8,4.2,61-17.5,87.1-40.1c23.9-20.8,42.9-44.5,68.6-60 c34.2-20.6,77.6-23.6,118.5-17c40.4,6.6,79.9,21.1,120.3,28.8c39.6,7.5,80.8,10.3,117.9-4.4c19.2-7.6,36.7-19.9,56.6-27.1 s43.6-9.1,61.3,2" stroke="url(#q)"/><linearGradient x1="2.819" y1="101.733" x2="942.978" gradientUnits="userSpaceOnUse" y2="101.733" xlink:type="simple" xlink:actuate="onLoad" id="r" xlink:show="other"><stop stop-color="#cbe4f1" offset="0"/><stop stop-color="#c8c1de" offset="0.2"/><stop stop-color="#f4d1e1" offset="0.4"/><stop stop-color="#f6cfbd" offset="0.6"/><stop stop-color="#f9f5d1" offset="0.8"/><stop stop-color="#cde3cd" offset="1"/></linearGradient><path fill="none" stroke-miterlimit="10" d="M3.1,62.2c20,13.2,52.3,11.6,76.3,4.1s42.7-18.7,61.3-27.4c19.1-8.9,42.4-15.7,63.8-4.2 c27.8,14.9,41.2,50.5,51.3,77.4c10.2,27,21.6,53.7,49.6,61.1c28.1,7.4,61.8-12.5,86.7-35.2c23.4-21.3,41.5-46.8,66.9-63.7 c34.3-22.8,78.8-26.9,120.6-21c41.4,5.9,81.7,20.3,122.9,28.7c40.6,8.3,83.2,12,121.9-2.1c19.5-7.1,37.3-18.6,57.2-25.5 s43.2-8.9,61.2,1.7" stroke="url(#r)"/><linearGradient x1="2.945" y1="93.372" x2="943.759" gradientUnits="userSpaceOnUse" y2="93.372" xlink:type="simple" xlink:actuate="onLoad" id="s" xlink:show="other"><stop stop-color="#cbe4f1" offset="0"/><stop stop-color="#c8c1de" offset="0.2"/><stop stop-color="#f4d1e1" offset="0.4"/><stop stop-color="#f6cfbd" offset="0.6"/><stop stop-color="#f9f5d1" offset="0.8"/><stop stop-color="#cde3cd" offset="1"/></linearGradient><path fill="none" stroke-miterlimit="10" d="M3.3,60.3c18.9,15.4,50.1,13.5,73.2,4.1s41.4-24.3,61-35.7c19.9-11.5,44.9-19.7,67.2-9.2 c28.6,13.5,40.3,49.2,48.3,78.4c8,29.1,18,60.4,46.4,71c28.4,10.6,62.6-7.6,86.3-30.2c23-21.9,40.1-49.1,65.3-67.4 c34.3-24.9,80-30.2,122.6-24.9C615.9,51.5,657,65.9,698.9,75c41.6,9.1,85.5,13.7,125.8,0.2c19.7-6.6,37.9-17.4,57.8-24 c19.9-6.6,42.8-8.7,61.1,1.4" stroke="url(#s)"/><linearGradient x1="3.076" y1="85.012" x2="944.54" gradientUnits="userSpaceOnUse" y2="85.012" xlink:type="simple" xlink:actuate="onLoad" id="t" xlink:show="other"><stop stop-color="#cbe4f1" offset="0"/><stop stop-color="#c8c1de" offset="0.2"/><stop stop-color="#f4d1e1" offset="0.4"/><stop stop-color="#f6cfbd" offset="0.6"/><stop stop-color="#f9f5d1" offset="0.8"/><stop stop-color="#cde3cd" offset="1"/></linearGradient><path fill="none" stroke-miterlimit="10" d="M3.4,58.3c17.8,17.6,47.8,15.4,70.1,4.1s40-29.9,60.7-44s47.4-23.7,70.6-14.2c29.4,12.1,39.4,48,45.2,79.3 s14.5,67.2,43.1,80.9c28.7,13.8,63.4-2.7,85.8-25.3s38.6-51.3,63.6-71.1c34.4-27.1,81.2-33.4,124.7-28.9 c43.5,4.5,85.4,18.7,128,28.5c42.6,9.8,87.9,15.3,129.7,2.4c19.9-6.1,38.5-16.2,58.3-22.5s42.4-8.4,60.9,1.1" stroke="url(#t)"/><linearGradient x1="3.191" y1="91.582" x2="944.221" gradientUnits="userSpaceOnUse" y2="91.582" xlink:type="simple" xlink:actuate="onLoad" id="u" xlink:show="other"><stop stop-color="#cbe4f1" offset="0"/><stop stop-color="#c8c1de" offset="0.2"/><stop stop-color="#f4d1e1" offset="0.4"/><stop stop-color="#f6cfbd" offset="0.6"/><stop stop-color="#f9f5d1" offset="0.8"/><stop stop-color="#cde3cd" offset="1"/></linearGradient><path fill="none" stroke-miterlimit="10" d="M3.5,64.5c13.9,12.2,35.7,14.2,55,9.6c5.2-1.3,10.3-3,15.1-5.2c12.7-5.7,24.1-13.8,35.3-22.7 c8.5-6.8,16.6-14,25.2-20.4c10.1-7.5,21.6-14,33.7-17.3c11.7-3.2,23.9-3.4,35.3,1c12.4,4.8,21.6,13.9,28.4,25.2 c9.4,15.6,14.2,35.3,17.5,53.5c1.1,6.2,2.3,12.6,3.8,19c5.8,25.7,15.3,50.7,37.2,62.9c12.3,6.9,26.1,8.7,40.1,5.5 c18-4,35-16,47.8-29.7c21.9-23.2,37.9-52.3,63.2-71.9c25.7-19.9,58.3-27.6,90.9-28.2c11.6-0.2,23.2,0.5,34.6,1.9 c20.7,2.5,41.1,6.9,61.4,11.5c22.5,5.1,44.7,10.4,67.1,14.5c11.7,2.2,23.6,4,35.6,5.2c31.4,3.3,63.9,2.7,94.2-5.5 c3.3-0.9,6.6-1.9,9.9-2.9c16.3-5.2,31.6-11.7,48-15.9c1.7-0.4,3.5-0.9,5.2-1.2c18.4-4,39-4.5,55.8,2.9" stroke="url(#u)"/><linearGradient x1="3.309" y1="98.153" x2="943.899" gradientUnits="userSpaceOnUse" y2="98.153" xlink:type="simple" xlink:actuate="onLoad" id="v" xlink:show="other"><stop stop-color="#cbe4f1" offset="0"/><stop stop-color="#c8c1de" offset="0.2"/><stop stop-color="#f4d1e1" offset="0.4"/><stop stop-color="#f6cfbd" offset="0.6"/><stop stop-color="#f9f5d1" offset="0.8"/><stop stop-color="#cde3cd" offset="1"/></linearGradient><path fill="none" stroke-miterlimit="10" d="M3.6,70.6c13.9,10.7,35.8,12.9,55.1,9.1c5.2-1,10.3-2.5,15.1-4.4c12.8-5,24.5-12.4,35.7-21.3 c8.6-6.8,16.4-14.2,24.6-20.9c9.6-7.9,20.6-14.8,32.4-18.5c11.4-3.7,23.6-4.1,35.1,0c12.5,4.5,21.9,13.4,28.8,24.6 c9.6,15.5,14.5,35.2,17.8,53.5c1.1,6.3,2.3,12.7,3.6,19.1c5.4,25.8,14.5,50.5,35.2,63.7c12.1,7.7,25.9,11,40.6,8.3 c19-3.4,36.5-16.8,49.5-31.3c21.3-23.9,37.2-53.3,62.8-72.8c26-19.8,58.9-26.5,91.7-26.3c11.6,0.1,23.2,1,34.7,2.6 c20.8,2.8,41.3,7.3,61.7,11.5c22.7,4.6,44.9,8.9,67.2,11.9c11.7,1.6,23.5,2.8,35.5,3.6c31.3,2,64,0.5,94.5-6.5 c3.4-0.8,6.7-1.6,10-2.5c16.3-4.3,31.4-9.5,47.6-12.7c1.7-0.3,3.4-0.6,5.2-0.9c18.2-2.9,39.2-3,55.8,3.2" stroke="url(#v)"/><linearGradient x1="3.432" y1="104.724" x2="943.574" gradientUnits="userSpaceOnUse" y2="104.724" xlink:type="simple" xlink:actuate="onLoad" id="w" xlink:show="other"><stop stop-color="#cbe4f1" offset="0"/><stop stop-color="#c8c1de" offset="0.2"/><stop stop-color="#f4d1e1" offset="0.4"/><stop stop-color="#f6cfbd" offset="0.6"/><stop stop-color="#f9f5d1" offset="0.8"/><stop stop-color="#cde3cd" offset="1"/></linearGradient><path fill="none" stroke-miterlimit="10" d="M3.7,76.5c13.8,9.1,36,11.6,55.1,8.7c5.2-0.8,10.3-2.1,15.1-3.7c12.9-4.4,24.8-11.1,36-19.9 c8.6-6.8,16.1-14.4,24-21.4c9.2-8.2,19.5-15.5,31.1-19.7c11.2-4.1,23.4-4.8,35-0.9c12.5,4.3,22.2,12.9,29.3,24 c9.9,15.4,14.9,35.1,18,53.5c1.1,6.3,2.2,12.7,3.4,19.1c5.1,25.8,13.6,50.4,33.1,64.6c11.8,8.6,25.7,13.4,41.1,11.2 c19.9-2.9,38-17.5,51.2-33c20.8-24.5,36.6-54.3,62.5-73.7c26.3-19.7,59.6-25.5,92.4-24.4c11.6,0.4,23.2,1.6,34.7,3.3 c20.9,3.1,41.5,7.8,62.1,11.5c22.9,4.2,45.1,7.3,67.3,9.2c11.7,1,23.4,1.7,35.3,1.9c31.2,0.6,64.2-1.6,94.8-7.5 c3.4-0.6,6.7-1.3,10-2c16.3-3.4,31.1-7.3,47.1-9.5c1.7-0.2,3.4-0.4,5.1-0.6c18-1.9,39.4-1.5,55.9,3.4" stroke="url(#w)"/><linearGradient x1="3.56" y1="111.294" x2="943.247" gradientUnits="userSpaceOnUse" y2="111.294" xlink:type="simple" xlink:actuate="onLoad" id="x" xlink:show="other"><stop stop-color="#cbe4f1" offset="0"/><stop stop-color="#c8c1de" offset="0.2"/><stop stop-color="#f4d1e1" offset="0.4"/><stop stop-color="#f6cfbd" offset="0.6"/><stop stop-color="#f9f5d1" offset="0.8"/><stop stop-color="#cde3cd" offset="1"/></linearGradient><path fill="none" stroke-miterlimit="10" d="M3.8,82.4c13.7,7.5,36.1,10.4,55.2,8.2c5.1-0.6,10.2-1.6,15.1-3c13-3.7,25.1-9.7,36.4-18.6 c8.7-6.8,15.9-14.6,23.4-21.9c8.7-8.5,18.5-16.3,29.7-20.9c10.9-4.5,23.1-5.6,34.8-1.9c12.6,4,22.5,12.5,29.7,23.4 c10.1,15.3,15.2,35,18.3,53.5c1.1,6.3,2.1,12.8,3.3,19.2c4.8,25.8,12.7,50.3,31.1,65.5c11.6,9.6,25.5,15.8,41.5,14 c20.8-2.4,39.5-18.2,52.9-34.7c20.3-25,35.9-55.2,62.1-74.5c26.6-19.6,60.3-24.4,93.1-22.6c11.6,0.6,23.3,2.1,34.8,4 c20.9,3.5,41.7,8.2,62.5,11.6c23.1,3.7,45.3,5.8,67.5,6.6c11.6,0.5,23.3,0.5,35.1,0.3c31-0.7,64.4-3.8,95-8.6 c3.4-0.5,6.7-1.1,10-1.6c16.3-2.6,30.8-5.1,46.7-6.3c1.7-0.1,3.4-0.2,5.1-0.3c17.9-0.8,39.5,0.1,56,3.7" stroke="url(#x)"/><linearGradient x1="3.694" y1="117.865" x2="942.918" gradientUnits="userSpaceOnUse" y2="117.865" xlink:type="simple" xlink:actuate="onLoad" id="y" xlink:show="other"><stop stop-color="#cbe4f1" offset="0"/><stop stop-color="#c8c1de" offset="0.2"/><stop stop-color="#f4d1e1" offset="0.4"/><stop stop-color="#f6cfbd" offset="0.6"/><stop stop-color="#f9f5d1" offset="0.8"/><stop stop-color="#cde3cd" offset="1"/></linearGradient><path fill="none" stroke-miterlimit="10" d="M3.9,88.3c13.6,5.9,36.3,9.1,55.2,7.8c5.1-0.4,10.2-1.1,15.1-2.2c13.1-3,25.4-8.3,36.8-17.2 c8.8-6.8,15.7-14.8,22.8-22.4c8.3-8.8,17.4-17,28.4-22.1c10.6-4.9,22.9-6.3,34.6-2.8c12.6,3.7,22.8,12,30.2,22.9 c10.4,15.2,15.5,34.9,18.5,53.4c1,6.3,2,12.8,3.1,19.2c4.4,25.9,11.8,50.3,29.1,66.4c11.3,10.5,25.3,18.2,42,16.8 c21.8-1.8,41-18.9,54.6-36.4c19.8-25.6,35.2-56.2,61.7-75.4c26.9-19.5,61-23.3,93.9-20.7c11.6,0.9,23.3,2.6,34.9,4.7 c21,3.8,41.9,8.6,62.8,11.6c23.3,3.3,45.4,4.3,67.6,4c11.6-0.1,23.2-0.6,35-1.4c30.9-2,64.6-6,95.3-9.6c3.4-0.4,6.7-0.8,10-1.1 c16.3-1.7,30.5-2.9,46.2-3c1.6,0,3.3,0,5,0c17.7,0.2,39.7,1.6,56.1,3.9" stroke="url(#y)"/><linearGradient x1="3.833" y1="124.436" x2="942.587" gradientUnits="userSpaceOnUse" y2="124.436" xlink:type="simple" xlink:actuate="onLoad" id="z" xlink:show="other"><stop stop-color="#cbe4f1" offset="0"/><stop stop-color="#c8c1de" offset="0.2"/><stop stop-color="#f4d1e1" offset="0.4"/><stop stop-color="#f6cfbd" offset="0.6"/><stop stop-color="#f9f5d1" offset="0.8"/><stop stop-color="#cde3cd" offset="1"/></linearGradient><path fill="none" stroke-miterlimit="10" d="M4,94.2c13.5,4.3,36.4,7.8,55.3,7.4c5.1-0.1,10.2-0.6,15.1-1.5c13.2-2.3,25.7-7,37.2-15.8 c8.8-6.8,15.4-15,22.2-22.9c7.8-9.2,16.4-17.8,27.1-23.3c10.4-5.4,22.6-7,34.5-3.7c12.7,3.4,23.1,11.5,30.7,22.3 c10.6,15.2,15.8,34.8,18.8,53.4c1,6.4,2,12.9,3,19.3c4.1,25.9,10.9,50.4,27.1,67.3c11.1,11.5,25.1,20.6,42.5,19.6 c22.7-1.3,42.6-19.5,56.2-38.1c19.3-26.1,34.6-57.2,61.3-76.3C462,82.4,496.5,79.6,529.4,83c11.6,1.2,23.3,3.2,34.9,5.5 c21.1,4.2,42.1,9.1,63.2,11.6c23.4,2.8,45.6,2.8,67.7,1.4c11.5-0.7,23.1-1.7,34.8-3c30.7-3.3,64.8-8.1,95.6-10.7 c3.4-0.3,6.8-0.5,10.1-0.7c16.3-0.8,30.3-0.7,45.8,0.2c1.6,0.1,3.3,0.2,5,0.3c17.6,1.2,39.9,3.1,56.2,4.2" stroke="url(#z)"/><linearGradient x1="3.979" y1="131.006" x2="942.268" gradientUnits="userSpaceOnUse" y2="131.006" xlink:type="simple" xlink:actuate="onLoad" id="A" xlink:show="other"><stop stop-color="#cbe4f1" offset="0"/><stop stop-color="#c8c1de" offset="0.2"/><stop stop-color="#f4d1e1" offset="0.4"/><stop stop-color="#f6cfbd" offset="0.6"/><stop stop-color="#f9f5d1" offset="0.8"/><stop stop-color="#cde3cd" offset="1"/></linearGradient><path fill="none" stroke-miterlimit="10" d="M4.1,100.1c13.5,2.8,36.5,6.6,55.3,6.9c5.1,0.1,10.1-0.2,15.1-0.8c13.3-1.6,26-5.6,37.5-14.4 c8.9-6.8,15.2-15.2,21.6-23.5c7.4-9.5,15.3-18.6,25.8-24.5c10.1-5.8,22.4-7.6,34.3-4.7c12.7,3.2,23.4,11,31.1,21.7 c10.9,15.1,16.1,34.6,19,53.4c1,6.4,1.9,12.9,2.8,19.4c3.8,25.9,9.9,50.5,25.1,68.2c10.8,12.6,25,23,42.9,22.4 c23.6-0.7,44.1-20.2,57.9-39.8c18.9-26.6,33.9-58.2,61-77.2C461,88,495.9,86.2,528.8,90.4c11.6,1.5,23.4,3.7,35,6.2 c21.2,4.5,42.3,9.5,63.5,11.7c23.6,2.3,45.8,1.3,67.8-1.2c11.5-1.2,23-2.9,34.7-4.6c30.6-4.6,65-10.3,95.9-11.7 c3.4-0.1,6.8-0.2,10.1-0.2c16.4-0.1,30,1.5,45.3,3.4c1.6,0.2,3.2,0.4,4.9,0.6c17.4,2.3,40.1,4.7,56.3,4.5" stroke="url(#A)"/><linearGradient x1="4.128" y1="137.577" x2="942.015" gradientUnits="userSpaceOnUse" y2="137.577" xlink:type="simple" xlink:actuate="onLoad" id="B" xlink:show="other"><stop stop-color="#cbe4f1" offset="0"/><stop stop-color="#c8c1de" offset="0.2"/><stop stop-color="#f4d1e1" offset="0.4"/><stop stop-color="#f6cfbd" offset="0.6"/><stop stop-color="#f9f5d1" offset="0.8"/><stop stop-color="#cde3cd" offset="1"/></linearGradient><path fill="none" stroke-miterlimit="10" d="M4.2,105.9c13.4,1.2,36.7,5.3,55.4,6.5c5,0.3,10.1,0.3,15,0c13.4-0.9,26.3-4.2,37.9-13c8.9-6.8,15-15.5,21-24 c6.9-9.8,14.3-19.3,24.4-25.7c9.9-6.2,22.1-8.3,34.1-5.6c12.8,2.9,23.7,10.5,31.6,21.1c11.1,15,16.4,34.5,19.3,53.4 c1,6.4,1.8,13,2.6,19.4c3.4,26,8.9,50.7,23,69.1c10.5,13.6,24.8,25.3,43.4,25.2c24.6-0.2,45.6-20.9,59.6-41.4 c18.4-27.1,33.2-59.2,60.6-78c27.8-19.2,63.1-20.1,96.1-15.1c11.6,1.8,23.4,4.2,35,6.9c21.2,4.8,42.4,10,63.9,11.7 c23.8,1.9,46-0.2,67.9-3.8c11.4-1.8,22.9-4,34.5-6.3c30.4-6,65.2-12.6,96.1-12.8c3.4,0,6.8,0.1,10.1,0.2 c16.4,0.9,29.7,3.7,44.9,6.6c1.6,0.3,3.2,0.6,4.9,0.9c17.3,3.3,40.3,6.2,56.4,4.7" stroke="url(#B)"/><linearGradient x1="4.25" y1="144.148" x2="941.761" gradientUnits="userSpaceOnUse" y2="144.148" xlink:type="simple" xlink:actuate="onLoad" id="C" xlink:show="other"><stop stop-color="#cbe4f1" offset="0"/><stop stop-color="#c8c1de" offset="0.2"/><stop stop-color="#f4d1e1" offset="0.4"/><stop stop-color="#f6cfbd" offset="0.6"/><stop stop-color="#f9f5d1" offset="0.8"/><stop stop-color="#cde3cd" offset="1"/></linearGradient><path fill="none" stroke-miterlimit="10" d="M4.3,111.8c13.3-0.4,36.8,4.1,55.4,6c5,0.5,10.1,0.8,15,0.7c13.4-0.2,26.6-2.9,38.3-11.6 c9-6.8,14.8-15.7,20.4-24.5c6.5-10.1,13.2-20.1,23.1-26.9c9.6-6.6,21.9-9,34-6.6c12.8,2.6,24,10.1,32,20.5 c11.4,14.9,16.8,34.4,19.5,53.4c0.9,6.4,1.7,13,2.5,19.5c3.1,26,7.8,50.9,21,69.9c10.2,14.7,24.6,27.7,43.9,28 c25.5,0.4,47.2-21.5,61.3-43.1c18-27.6,32.5-60.1,60.2-78.9c28.2-19.1,63.8-19,96.8-13.2c11.7,2,23.4,4.8,35.1,7.6 c21.3,5.2,42.6,10.4,64.2,11.7c24,1.4,46.2-1.7,68-6.4c11.4-2.4,22.8-5.2,34.3-7.9c30.3-7.3,65.4-14.7,96.4-13.8 c3.5,0.1,6.8,0.3,10.2,0.7c16.4,1.7,29.4,5.9,44.5,9.8c1.6,0.4,3.2,0.8,4.8,1.2c17.1,4.4,40.5,7.8,56.5,5" stroke="url(#C)"/><linearGradient x1="4.284" y1="150.718" x2="941.507" gradientUnits="userSpaceOnUse" y2="150.718" xlink:type="simple" xlink:actuate="onLoad" id="D" xlink:show="other"><stop stop-color="#cbe4f1" offset="0"/><stop stop-color="#c8c1de" offset="0.2"/><stop stop-color="#f4d1e1" offset="0.4"/><stop stop-color="#f6cfbd" offset="0.6"/><stop stop-color="#f9f5d1" offset="0.8"/><stop stop-color="#cde3cd" offset="1"/></linearGradient><path fill="none" stroke-miterlimit="10" d="M4.4,117.7c13.2-2,37,2.8,55.5,5.6c5,0.7,10,1.3,15,1.4c13.5,0.5,26.9-1.5,38.7-10.3 c9.1-6.8,14.5-15.9,19.8-25c6-10.5,12.2-20.9,21.8-28.1c9.4-7.1,21.6-9.7,33.8-7.5c12.8,2.4,24.4,9.6,32.5,19.9 c11.6,14.8,17.1,34.3,19.8,53.4c0.9,6.5,1.6,13.1,2.3,19.6c2.8,26,6.8,51.1,19,70.8c9.8,15.8,24.4,30.1,44.4,30.9 c26.5,1,48.8-22.2,63-44.8c17.6-28.1,31.9-61.1,59.8-79.8c28.5-19,64.5-17.9,97.6-11.3c11.7,2.3,23.4,5.3,35.2,8.3 c21.4,5.5,42.8,10.9,64.6,11.7c24.2,1,46.3-3.3,68.2-9c11.4-2.9,22.7-6.3,34.2-9.6c30.1-8.6,65.6-16.9,96.7-14.9 c3.5,0.2,6.9,0.6,10.2,1.1c16.4,2.6,29.2,8,44,13.1c1.6,0.5,3.1,1,4.8,1.6c16.9,5.4,40.7,9.3,56.5,5.2" stroke="url(#D)"/><linearGradient x1="4.32" y1="157.289" x2="941.251" gradientUnits="userSpaceOnUse" y2="157.289" xlink:type="simple" xlink:actuate="onLoad" id="E" xlink:show="other"><stop stop-color="#cbe4f1" offset="0"/><stop stop-color="#c8c1de" offset="0.2"/><stop stop-color="#f4d1e1" offset="0.4"/><stop stop-color="#f6cfbd" offset="0.6"/><stop stop-color="#f9f5d1" offset="0.8"/><stop stop-color="#cde3cd" offset="1"/></linearGradient><path fill="none" stroke-miterlimit="10" d="M4.5,123.5c13.1-3.6,37.1,1.5,55.5,5.1c4.9,1,10,1.7,15,2.2c13.6,1.2,27.3-0.1,39-8.9 c9.1-6.8,14.3-16.1,19.2-25.5c5.6-10.8,11.1-21.7,20.4-29.3c9.1-7.5,21.4-10.4,33.6-8.4c12.9,2.1,24.7,9.1,32.9,19.4 c11.9,14.7,17.4,34.2,20,53.4c0.9,6.5,1.6,13.1,2.2,19.6c2.4,26.1,5.6,51.3,17,71.7c9.4,16.9,24.2,32.5,44.8,33.7 c27.4,1.5,50.4-22.8,64.7-46.5c17.2-28.6,31.2-62.1,59.5-80.6c28.8-18.9,65.2-16.8,98.3-9.5c11.7,2.6,23.5,5.9,35.2,9 c21.5,5.8,43,11.3,64.9,11.8c24.3,0.5,46.5-4.8,68.3-11.6c11.3-3.5,22.6-7.4,34-11.2c30-9.9,65.8-19,96.9-15.9 c3.5,0.4,6.9,0.9,10.2,1.6c16.4,3.5,28.9,10.2,43.6,16.3c1.5,0.6,3.1,1.3,4.7,1.9c16.8,6.5,40.9,10.8,56.6,5.5" stroke="url(#E)"/><linearGradient x1="4.361" y1="163.859" x2="940.992" gradientUnits="userSpaceOnUse" y2="163.859" xlink:type="simple" xlink:actuate="onLoad" id="F" xlink:show="other"><stop stop-color="#cbe4f1" offset="0"/><stop stop-color="#c8c1de" offset="0.2"/><stop stop-color="#f4d1e1" offset="0.4"/><stop stop-color="#f6cfbd" offset="0.6"/><stop stop-color="#f9f5d1" offset="0.8"/><stop stop-color="#cde3cd" offset="1"/></linearGradient><path fill="none" stroke-miterlimit="10" d="M4.5,129.4c13.1-5.1,37.2,0.2,55.6,4.7c4.9,1.2,10,2.2,15,2.9c13.7,1.9,27.6,1.2,39.4-7.5 c9.2-6.8,14.1-16.3,18.6-26c5.1-11.1,10.1-22.4,19.1-30.5c8.8-7.9,21.1-11.1,33.5-9.4c12.9,1.8,25,8.6,33.4,18.8 c12.1,14.6,17.7,34.1,20.3,53.4c0.9,6.5,1.5,13.1,2,19.7c2.1,26.1,4.5,51.6,15,72.6c9,18,24,35,45.3,36.5 c28.3,2.1,52-23.4,66.3-48.2c16.9-29.1,30.5-63.1,59.1-81.5c29.1-18.8,65.9-15.7,99-7.6c11.7,2.9,23.5,6.4,35.3,9.8 c21.5,6.2,43.2,11.7,65.3,11.8c24.5,0.1,46.7-6.3,68.4-14.2c11.3-4.1,22.5-8.6,33.8-12.8c29.9-11.2,66-21.2,97.2-17 c3.5,0.5,6.9,1.2,10.3,2c16.4,4.3,28.6,12.4,43.1,19.5c1.5,0.7,3.1,1.5,4.7,2.2c16.6,7.5,41.1,12.4,56.7,5.8" stroke="url(#F)"/><linearGradient x1="4.407" y1="170.43" x2="940.731" gradientUnits="userSpaceOnUse" y2="170.43" xlink:type="simple" xlink:actuate="onLoad" id="G" xlink:show="other"><stop stop-color="#cbe4f1" offset="0"/><stop stop-color="#c8c1de" offset="0.2"/><stop stop-color="#f4d1e1" offset="0.4"/><stop stop-color="#f6cfbd" offset="0.6"/><stop stop-color="#f9f5d1" offset="0.8"/><stop stop-color="#cde3cd" offset="1"/></linearGradient><path fill="none" stroke-miterlimit="10" d="M4.6,135.3c13-6.7,37.4-1.1,55.6,4.2c4.9,1.4,9.9,2.7,15,3.6c13.8,2.6,27.9,2.6,39.8-6.1 c9.2-6.7,13.8-16.5,18-26.5c4.7-11.4,9-23.2,17.8-31.7c8.6-8.4,20.9-11.8,33.3-10.3c13,1.6,25.3,8.1,33.8,18.2 c12.4,14.5,18,34,20.5,53.4c0.8,6.5,1.4,13.2,1.8,19.7c1.8,26.1,3.3,51.8,12.9,73.5c8.5,19.2,23.8,37.4,45.8,39.3 c29.3,2.7,53.6-24,68-49.9c16.5-29.5,29.8-64.1,58.7-82.4c29.4-18.7,66.6-14.6,99.8-5.7c11.7,3.2,23.5,6.9,35.4,10.5 c21.6,6.5,43.4,12.2,65.6,11.8c24.7-0.4,46.9-7.8,68.5-16.8c11.2-4.6,22.4-9.7,33.7-14.5c29.7-12.6,66.2-23.4,97.5-18 c3.5,0.6,6.9,1.4,10.3,2.5c16.4,5.2,28.3,14.6,42.7,22.7c1.5,0.8,3,1.7,4.6,2.5c16.5,8.6,41.3,13.9,56.8,6" stroke="url(#G)"/><linearGradient x1="4.46" y1="177.001" x2="940.468" gradientUnits="userSpaceOnUse" y2="177.001" xlink:type="simple" xlink:actuate="onLoad" id="H" xlink:show="other"><stop stop-color="#cbe4f1" offset="0"/><stop stop-color="#c8c1de" offset="0.2"/><stop stop-color="#f4d1e1" offset="0.4"/><stop stop-color="#f6cfbd" offset="0.6"/><stop stop-color="#f9f5d1" offset="0.8"/><stop stop-color="#cde3cd" offset="1"/></linearGradient><path fill="none" stroke-miterlimit="10" d="M4.7,141.1c12.9-8.3,37.5-2.3,55.7,3.8c4.8,1.6,9.9,3.2,15,4.4c13.9,3.3,28.2,4,40.2-4.7 c9.3-6.7,13.6-16.7,17.4-27.1c4.2-11.7,8-24,16.4-32.9c8.3-8.8,20.6-12.5,33.1-11.3c13,1.3,25.6,7.6,34.3,17.6 c12.6,14.4,18.4,33.9,20.8,53.4c0.8,6.6,1.3,13.2,1.7,19.8c1.4,26.2,2.1,52,10.9,74.4c8,20.3,23.6,39.8,46.2,42.1 c30.2,3.2,55.2-24.7,69.7-51.5c16.2-30,29.2-65,58.3-83.3c29.7-18.6,67.3-13.6,100.5-3.8c11.7,3.4,23.5,7.5,35.4,11.2 c21.7,6.8,43.6,12.6,66,11.9c24.9-0.8,47-9.3,68.6-19.4c11.2-5.2,22.3-10.9,33.5-16.1c29.6-13.9,66.4-25.5,97.8-19.1 c3.5,0.7,7,1.7,10.3,2.9c16.4,6,28.1,16.8,42.2,25.9c1.5,1,3,1.9,4.5,2.8c16.3,9.6,41.5,15.4,56.9,6.3" stroke="url(#H)"/><linearGradient x1="4.518" y1="183.545" x2="940.201" gradientUnits="userSpaceOnUse" y2="183.545" xlink:type="simple" xlink:actuate="onLoad" id="I" xlink:show="other"><stop stop-color="#cbe4f1" offset="0"/><stop stop-color="#c8c1de" offset="0.2"/><stop stop-color="#f4d1e1" offset="0.4"/><stop stop-color="#f6cfbd" offset="0.6"/><stop stop-color="#f9f5d1" offset="0.8"/><stop stop-color="#cde3cd" offset="1"/></linearGradient><path fill="none" stroke-miterlimit="10" d="M4.8,147c12.8-9.9,37.7-3.6,55.7,3.4c4.8,1.8,9.9,3.6,15,5.1c14,4,28.5,5.3,40.6-3.3 c9.4-6.7,13.4-16.9,16.8-27.6c3.8-12.1,6.9-24.8,15.1-34.1c8.1-9.2,20.4-13.2,33-12.2c13.1,1.1,25.9,7.2,34.7,17 c12.9,14.3,18.7,33.8,21,53.3c0.8,6.6,1.3,13.3,1.5,19.9c1.1,26.2,0.8,52.2,8.9,75.3c7.5,21.4,23.4,42.1,46.7,44.9 c31.1,3.8,56.9-25.3,71.4-53.2c15.8-30.5,28.5-66,58-84.1c30-18.5,68-12.5,101.2-2c11.7,3.7,23.6,8,35.5,11.9 c21.8,7.2,43.8,13.1,66.3,11.9c25.1-1.3,47.2-10.8,68.7-22c11.2-5.8,22.2-12,33.4-17.8c29.4-15.2,66.6-27.7,98-20.1 c3.5,0.9,7,2,10.3,3.4c16.4,6.8,27.8,19,41.8,29.1c1.5,1.1,3,2.1,4.5,3.1c16.1,10.6,41.7,17,57,6.5" stroke="url(#I)"/><linearGradient x1="4.582" y1="190.132" x2="939.932" gradientUnits="userSpaceOnUse" y2="190.132" xlink:type="simple" xlink:actuate="onLoad" id="J" xlink:show="other"><stop stop-color="#cbe4f1" offset="0"/><stop stop-color="#c8c1de" offset="0.2"/><stop stop-color="#f4d1e1" offset="0.4"/><stop stop-color="#f6cfbd" offset="0.6"/><stop stop-color="#f9f5d1" offset="0.8"/><stop stop-color="#cde3cd" offset="1"/></linearGradient><path fill="none" stroke-miterlimit="10" d="M4.9,152.9c12.7-11.5,37.8-4.9,55.8,2.9c4.8,2.1,9.8,4.1,15,5.8c14.1,4.7,28.8,6.7,40.9-2 c9.4-6.7,13.2-17.1,16.2-28.1c3.4-12.4,5.9-25.5,13.8-35.3c7.8-9.7,20.1-13.9,32.8-13.1c13.1,0.8,26.2,6.7,35.2,16.4 c13.1,14.2,19,33.7,21.3,53.3c0.8,6.6,1.2,13.3,1.4,19.9c0.8,26.2-0.4,52.4,6.9,76.2c6.9,22.5,23.2,44.5,47.2,47.7 c32.1,4.4,58.5-25.9,73.1-54.9c15.5-30.9,27.8-67,57.6-85c30.3-18.3,68.7-11.4,102-0.1c11.7,4,23.6,8.5,35.5,12.6 c21.8,7.5,44,13.5,66.7,11.9c25.2-1.7,47.4-12.4,68.9-24.6c11.1-6.3,22.1-13.1,33.2-19.4c29.3-16.5,66.8-29.9,98.3-21.1 c3.5,1,7,2.3,10.4,3.8c16.5,7.7,27.5,21.2,41.3,32.4c1.4,1.2,2.9,2.3,4.4,3.4c16,11.7,41.9,18.5,57.1,6.8" stroke="url(#J)"/><linearGradient x1="4.651" y1="196.713" x2="939.66" gradientUnits="userSpaceOnUse" y2="196.713" xlink:type="simple" xlink:actuate="onLoad" id="K" xlink:show="other"><stop stop-color="#cbe4f1" offset="0"/><stop stop-color="#c8c1de" offset="0.2"/><stop stop-color="#f4d1e1" offset="0.4"/><stop stop-color="#f6cfbd" offset="0.6"/><stop stop-color="#f9f5d1" offset="0.8"/><stop stop-color="#cde3cd" offset="1"/></linearGradient><path fill="none" stroke-miterlimit="10" d="M5,158.8c12.7-13.1,38-6.1,55.9,2.5c4.8,2.3,9.8,4.6,14.9,6.5c14.2,5.4,29.1,8.1,41.3-0.6 c9.5-6.7,13-17.3,15.6-28.6c2.9-12.7,4.8-26.3,12.4-36.5c7.5-10.1,19.9-14.6,32.6-14.1c13.2,0.5,26.5,6.2,35.6,15.8 c13.4,14.2,19.3,33.6,21.5,53.3c0.7,6.7,1.1,13.4,1.2,20c0.4,26.3-1.7,52.6,4.8,77c6.4,23.6,23,46.9,47.6,50.6 c33,4.9,60.2-26.5,74.7-56.6c15.2-31.4,27.2-68,57.2-85.9c30.6-18.2,69.4-10.3,102.7,1.8c11.8,4.3,23.6,9.1,35.6,13.4 c21.9,7.8,44.2,13.9,67,12c25.4-2.2,47.6-13.9,69-27.3c11.1-6.9,22-14.3,33-21c29.1-17.8,67-32,98.6-22.2c3.6,1.1,7,2.5,10.4,4.3 c16.5,8.6,27.3,23.4,40.9,35.6c1.4,1.3,2.9,2.5,4.4,3.7c15.8,12.7,42.1,20,57.2,7" stroke="url(#K)"/><linearGradient x1="4.723" y1="203.287" x2="939.386" gradientUnits="userSpaceOnUse" y2="203.287" xlink:type="simple" xlink:actuate="onLoad" id="L" xlink:show="other"><stop stop-color="#cbe4f1" offset="0"/><stop stop-color="#c8c1de" offset="0.2"/><stop stop-color="#f4d1e1" offset="0.4"/><stop stop-color="#f6cfbd" offset="0.6"/><stop stop-color="#f9f5d1" offset="0.8"/><stop stop-color="#cde3cd" offset="1"/></linearGradient><path fill="none" stroke-miterlimit="10" d="M5.1,164.7c12.6-14.6,38.1-7.4,55.9,2c4.7,2.5,9.8,5.1,14.9,7.3c14.2,6.1,29.4,9.4,41.7,0.8 c9.5-6.7,12.8-17.5,15-29.1c2.5-13,3.8-27.1,11.1-37.7c7.3-10.5,19.6-15.3,32.4-15c13.2,0.3,26.8,5.7,36.1,15.3 c13.6,14.1,19.6,33.5,21.8,53.3c0.7,6.7,1,13.4,1,20.1c0.1,26.3-3,52.8,2.8,77.9c5.8,24.7,22.8,49.3,48.1,53.4 c34,5.5,61.8-27.1,76.4-58.3c14.9-31.8,26.5-68.9,56.9-86.8c30.9-18.1,70.1-9.2,103.5,3.7c11.8,4.6,23.7,9.6,35.7,14.1 c22,8.2,44.4,14.4,67.4,12c25.6-2.7,47.7-15.4,69.1-29.9c11-7.5,21.9-15.4,32.9-22.7c29-19.1,67.2-34.2,98.9-23.2 c3.6,1.2,7.1,2.8,10.4,4.7c16.5,9.4,27,25.6,40.4,38.8c1.4,1.4,2.9,2.7,4.3,4c15.7,13.8,42.3,21.6,57.2,7.3" stroke="url(#L)"/><linearGradient x1="4.8" y1="209.854" x2="939.11" gradientUnits="userSpaceOnUse" y2="209.854" xlink:type="simple" xlink:actuate="onLoad" id="M" xlink:show="other"><stop stop-color="#cbe4f1" offset="0"/><stop stop-color="#c8c1de" offset="0.2"/><stop stop-color="#f4d1e1" offset="0.4"/><stop stop-color="#f6cfbd" offset="0.6"/><stop stop-color="#f9f5d1" offset="0.8"/><stop stop-color="#cde3cd" offset="1"/></linearGradient><path fill="none" stroke-miterlimit="10" d="M5.2,170.6c12.5-16.2,38.3-8.7,56,1.6c17.7,10.3,40.2,21.9,57,10.2c20.3-14.2,10.7-47.6,24.1-68.5 c14.2-22.2,50.3-20,68.8-1.3s23.2,47.1,22.9,73.4s-4.3,53,0.8,78.8c5.1,25.8,22.6,51.7,48.6,56.2c34.9,6,63.5-27.7,78.1-60 c14.6-32.3,25.8-69.9,56.5-87.6c31.2-18,70.8-8.2,104.2,5.5c33.4,13.7,67.7,31.1,103.5,26.8c39.1-4.7,69.8-34,101.9-56.8 s76.2-39.9,109.6-19.1c18.2,11.3,28.8,31.5,44.3,46.4c15.5,14.8,42.5,23.1,57.3,7.6" stroke="url(#M)"/></g></svg>